# xmcd
#
# Track frame offsets: 
#        150
#        9128
#        20024
#        30973
#        38470
#        48114
#        59477
#        69921
#        79003
#        87210
#        97025
#        105732
#        116781
#        126117
#        137382
#        144727
#        153896
#        164095
#        179209
#        194490
#
# Disc length: 2820 seconds
#
# Revision: 0
# Processed by: cddbd v1.5.2PL0 Copyright (c) Steve Scherf et al.
# Submitted via: ExactAudioCopy v0.99pb3
#
DISCID=070b0214
DTITLE=los cuatro cuartos - 30 grandes exitos
DYEAR=1900
DGENRE=Folklore
TTITLE0=que bonita va
TTITLE1=resfalosa del adios
TTITLE2=san pedro troto cien años
TTITLE3=adios santiago querido
TTITLE4=juan paye
TTITLE5=doña javiera carrera
TTITLE6=las dos puntas
TTITLE7=el manco de amengual
TTITLE8=dos corazones
TTITLE9=mulas
TTITLE10=negro cachimbo
TTITLE11=amarraditos
TTITLE12=la batalla de concepcion
TTITLE13=si vas para chile
TTITLE14=mandame quitar la vida
TTITLE15=mano nortina
TTITLE16=resfalosa del morro
TTITLE17=silverio el guanaquero
TTITLE18=la tierra ajena
TTITLE19=paisajes de catamarca
EXTD=
EXTT0=
EXTT1=
EXTT2=
EXTT3=
EXTT4=
EXTT5=
EXTT6=
EXTT7=
EXTT8=
EXTT9=
EXTT10=
EXTT11=
EXTT12=
EXTT13=
EXTT14=
EXTT15=
EXTT16=
EXTT17=
EXTT18=
EXTT19=
PLAYORDER=
